<?xml version="1.0" encoding="utf-8"?>
<!-- Generator: Adobe Illustrator 24.1.3, SVG Export Plug-In . SVG Version: 6.00 Build 0)  -->
<svg version="1.1" xmlns="http://www.w3.org/2000/svg" xmlns:xlink="http://www.w3.org/1999/xlink" x="0px" y="0px"
	 viewBox="0 0 1000 1000" style="enable-background:new 0 0 1000 1000;" xml:space="preserve">
<style type="text/css">
	.st0{display:none;}
	.st1{display:inline;}
	.st2{fill:#52BE82;}
	.st3{fill:#F2F2F2;}
	.st4{fill:none;stroke:#FFFFFF;stroke-width:2.5;stroke-linecap:round;stroke-linejoin:round;stroke-miterlimit:10;}
	.st5{fill:#FFFFFF;}
	.st6{fill:none;stroke:#FFFFFF;stroke-width:10.8;stroke-linecap:round;stroke-linejoin:round;stroke-miterlimit:10;}
	.st7{fill:#FFFFFF;stroke:#FFFFFF;stroke-width:10.8;stroke-miterlimit:10;}
</style>
<g id="Layer_1" class="st0">
	<g class="st1">
		<g>
			<ellipse class="st2" cx="503.53" cy="507.63" rx="350.8" ry="349.5"/>
		</g>
		<g>
			<path class="st3" d="M382.92,713h-10.67c-2.39,0-4.63-1.04-6.14-2.91c-1.51-1.87-2.13-4.27-1.72-6.61l11.71-59.89
				c0.47-2.34-1.09-4.68-3.43-5.1c-11.81-2.29-21.49-9.68-25.96-19.77l-2.39-5.41c-0.47-0.94-1.2-1.77-2.19-2.19l-5.46-2.5
				c-20.29-9.21-32.94-27.73-32.94-48.34c0-6.3,1.14-12.44,3.49-18.21c1.25-3.12,0.83-5.05-0.42-6.24
				c-0.05-0.05-26.59-25.76-23.21-54.53c1.51-12.7,7.49-35.75,30.18-47.51l6.35-3.28c0.26-0.16,0.47-0.31,0.78-0.47
				c0.68-0.31,3.12-1.56,6.76-2.76c3.38-48.49,51.77-84.14,95.22-84.14c11.6,0,22.95,1.82,33.82,5.46
				c17.33-20.86,61.4-26.28,77.48-24.51c17.07,1.87,39.96,8.12,52.08,27l5.88,9.21c0.99,1.56,2.65,2.34,4.63,1.87l10.72-2.39
				c34.08-7.54,67.95,13.22,73.31,43.97l1.77,10.25c0.31,1.77,1.67,3.17,3.33,3.54l10.2,2.24c26.85,5.88,45.53,27.53,45.53,52.55
				c0,8.38-2.03,16.39-6.14,23.88l-4.06,7.44c-0.68,1.3-0.68,2.91,0,4.16l4.06,7.44c4.11,7.49,6.19,15.56,6.19,23.93
				c0,16.39-9.78,36.73-37.36,40.01c-1.4,0.16-2.65,0.99-3.33,2.24l0,0c0.05,0-17.79,31.74-49.27,35.49
				c-2.34,0.31-4.84,0.42-7.34,0.42c-12.44,0-38.76,0-55.57-10.15c-17.79,23.15-56.82,29.24-82.94,10.77
				c-0.05,0.05-0.1,0.16-0.16,0.21c-11.08,13.84-41.73,31.58-77.53,21.44c-1.04,0.36-1.93,1.09-2.45,2.08l-35.8,67.02
				C388.59,711.33,385.88,713,382.92,713z M328.44,444.15c-0.16,0.1-0.36,0.21-0.52,0.31l-6.71,3.49
				c-16.23,8.38-20.55,25.65-21.7,35.23c-2.34,19.93,18.37,41.05,18.52,41.26c5.93,5.78,7.7,14.46,4.58,22.11
				c-2.08,5.26-2.91,9.42-2.91,13.68c0,14.26,9.05,27.26,23.62,33.87l5.52,2.5c4.47,2.03,8.01,5.67,10.09,10.2l2.45,5.52
				c2.34,5.36,7.7,9.31,14.36,10.56c10.98,2.19,18.21,12.85,16.08,23.78l-7.65,39.08l27.52-51.46c3.33-6.19,9.47-10.2,16.49-10.72
				c1.04-0.05,2.03,0.05,2.97,0.31c33.72,10.35,59.47-10.3,63.17-17.07c-4.16-13.16-19.04-52.66-51.56-68.27
				c-20.34-9.83-43.81-8.69-69.62,3.17c-4.06,1.82-8.74,0.1-10.61-3.9c-1.82-4.01-0.1-8.74,3.95-10.56
				c30.49-14,58.48-14.99,83.25-3.07c36.37,17.48,53.23,57.44,59.37,76.33l5.15,3.8c19.72,14.62,49.95,10.09,62.96-8.22
				c18.99-39.39-12.49-79.3-13.84-80.96c-2.76-3.43-2.19-8.43,1.25-11.19c3.38-2.76,8.48-2.19,11.24,1.25
				c0.62,0.78,6.92,8.74,12.75,21.07c24.77-28.25,59.21-31.74,60.83-31.9c4.21-0.47,8.33,2.86,8.64,7.23
				c0.42,4.37-2.81,8.27-7.23,8.64c-0.36,0-35.02,3.49-55.57,33.4c4.16,14.31,5.83,31.38,0.42,49.07
				c12.23,8.74,39.23,8.74,48.7,8.74c1.87,0,3.69-0.1,5.46-0.31c22.69-2.71,37.1-27.26,37.26-27.53c3.28-5.67,8.95-9.42,15.35-10.2
				c20.97-2.5,23.26-17.8,23.26-24.19c0-5.67-1.4-11.19-4.27-16.29l-4.06-7.44c-3.33-6.09-3.33-13.32,0-19.41l4.06-7.44
				c2.76-5.1,4.21-10.56,4.21-16.29c0-17.48-13.58-32.68-32.99-36.94l-10.2-2.24c-8.12-1.82-14.26-8.22-15.66-16.34l-1.77-10.25
				c-3.85-21.91-28.41-36.94-54.06-31.12l-10.72,2.39c-8.22,1.93-17.01-1.72-21.59-8.9l-5.88-9.21
				c-8.69-13.58-26.74-18.26-40.38-19.77c-15.14-1.67-47.19,4.01-60.67,16.03c14.52,9.26,23.26,20.66,26.59,34.03
				c6.82,27.73-11.19,56.04-14.88,61.45c-2.39,3.54-7.34,4.58-10.98,2.24c-3.64-2.34-4.79-7.13-2.5-10.82
				c2.08-3.07,18.16-27.42,12.8-49.07c-2.76-11.29-11.71-20.86-26.59-28.46c-10.15-4.06-21.54-6.3-33.3-6.3
				c-34.34,0-73.89,28.1-78.88,65.66c3.64,0.05,7.44,0.62,11.34,1.93c12.33,4.01,22.32,14.52,29.76,31.12
				c1.77,4.01-0.05,8.74-4.06,10.51c-4.21,1.82-8.79-0.05-10.56-4.06c-5.52-12.28-12.23-19.88-20.14-22.43
				C339.73,438.27,328.85,443.89,328.44,444.15L328.44,444.15z M571.84,399.51c-2.81,0-5.57-1.51-7.02-4.16
				c-1.09-1.93-10.67-18.68-28.46-22.84c-8.33-1.98-16.96-0.78-25.65,3.33c-4.01,1.77-8.79,0.16-10.67-3.8
				c-1.87-4.01-0.16-8.74,3.8-10.61c12.07-5.67,24.3-7.18,36.16-4.42c24.09,5.67,36.63,26.59,38.87,30.75
				c2.13,3.85,0.73,8.74-3.17,10.82C574.5,399.19,573.15,399.51,571.84,399.51z"/>
		</g>
	</g>
</g>
<g id="Layer_2" class="st0">
	<g class="st1">
		<g>
			<path class="st2" d="M853.05,507.45c0,193.1-156.51,349.55-349.5,349.55C310.46,857,154,700.54,154,507.45
				s156.46-349.5,349.55-349.5C696.54,157.95,853.05,314.35,853.05,507.45"/>
			<path class="st4" d="M698.11,507.45c0,107.46-87.15,194.61-194.61,194.61s-194.61-87.15-194.61-194.61
				c0-107.51,87.15-194.56,194.61-194.56S698.11,399.93,698.11,507.45z"/>
			<path class="st4" d="M643.42,507.45c0,77.26-62.66,139.86-139.92,139.86s-139.86-62.55-139.86-139.86
				c0-77.26,62.6-139.92,139.86-139.92S643.42,430.19,643.42,507.45z"/>
			<path class="st5" d="M541.29,507.45c0,20.89-16.91,37.74-37.79,37.74c-20.83,0-37.79-16.85-37.79-37.74
				c0-20.89,16.91-37.74,37.79-37.74S541.29,486.56,541.29,507.45"/>
		</g>
		<path class="st5" d="M385.1,367.53c0,11.88-9.63,21.51-21.51,21.51c-11.83,0-21.41-9.58-21.41-21.51
			c0-11.83,9.58-21.41,21.41-21.41C375.47,346.12,385.1,355.7,385.1,367.53"/>
		<path class="st5" d="M451.78,685.26c0,11.88-9.58,21.46-21.51,21.46c-11.88,0-21.46-9.58-21.46-21.46
			c0-11.83,9.58-21.46,21.46-21.46C442.21,663.8,451.78,673.43,451.78,685.26"/>
		<path class="st5" d="M608.66,616.69c0,11.88-9.63,21.46-21.51,21.46c-11.88,0-21.46-9.58-21.46-21.46
			c0-11.83,9.58-21.46,21.46-21.46C599.08,595.23,608.66,604.86,608.66,616.69"/>
		<path class="st5" d="M660.37,479.97c0,11.83-9.63,21.46-21.51,21.46s-21.46-9.63-21.46-21.46c0-11.88,9.58-21.51,21.46-21.51
			C650.74,458.51,660.37,468.14,660.37,479.97"/>
		<path class="st5" d="M660.37,367.53c0,11.88-9.63,21.51-21.51,21.51s-21.46-9.58-21.46-21.51c0-11.83,9.58-21.41,21.46-21.41
			C650.74,346.12,660.37,355.7,660.37,367.53"/>
		<path class="st5" d="M385.1,491.12c0,11.88-9.63,21.51-21.51,21.51c-11.83,0-21.41-9.63-21.41-21.51
			c0-11.83,9.58-21.41,21.41-21.41C375.47,469.71,385.1,479.29,385.1,491.12"/>
	</g>
</g>
<g id="Layer_3" class="st0">
	<g class="st1">
		<g>
			<g>
				<ellipse class="st2" cx="503.5" cy="508.79" rx="349.5" ry="348.21"/>
			</g>
		</g>
		<path class="st5" d="M620.46,365.85c-0.93-9.45-1.7-17.4-2.43-25.36c-0.72-8.11,2.17-12.81,8.37-13.58
			c6.46-0.83,10.59,3.36,11.46,11.88c1.81,16.78,3.56,33.57,5.27,50.35c0.98,9.91-2.94,14.25-12.75,13.79
			c-17.35-0.77-34.7-1.65-52.05-2.63c-7.28-0.41-11.67-4.6-11.31-10.38c0.36-6.25,4.54-9.66,12.08-9.45
			c8.42,0.26,16.78,0.72,25.2,1.08c0.31-0.93,0.62-1.86,0.93-2.79c-11.21-6.4-21.95-13.79-33.67-19.11
			c-66.15-30.05-145.16-12.76-191.48,41.31c-48.08,56.13-53.6,135.25-13.79,197.27c52.41,81.59,167,99.36,241.31,37.39
			c39.04-32.58,58.71-74.52,60.11-125.18c0.05-1.76,0-3.51,0.05-5.27c0.36-6.76,4.18-11,10.12-10.69c6.4,0.31,9.97,4.39,9.6,10.38
			c-0.98,14.77-1.24,29.85-4.44,44.2c-28.51,128.79-180.59,186.11-287.38,108.7c-78.54-57.01-99.46-167.26-46.94-247.82
			c54.27-83.24,161.69-109.48,247.15-60.26C603.73,354.23,611.17,359.76,620.46,365.85z"/>
	</g>
</g>
<g id="Layer_4" class="st0">
	<g class="st1">
		<path class="st2" d="M852,508.05c0,192.71-156.26,349.03-348.97,349.03C310.26,857.07,154,700.81,154,508.05
			c0-192.82,156.21-349.03,349.03-349.03C695.74,159.02,852,315.23,852,508.05"/>
		<polygon class="st6" points="559.34,346.62 407.06,525.58 467.14,525.42 447.39,669.48 598.89,488.76 524.64,488.76 		"/>
		<path class="st6" d="M716.73,508.05c0,118-95.71,213.66-213.76,213.66s-213.76-95.66-213.76-213.66
			c0-118.05,95.71-213.76,213.76-213.76S716.73,390.05,716.73,508.05z"/>
		<line class="st6" x1="352.4" y1="357.79" x2="653.55" y2="658.88"/>
	</g>
</g>
<g id="Layer_5">
	<g>
		<path class="st2" d="M852,509.02c0,192.76-156.24,349.05-349,349.05c-192.82,0-349-156.29-349-349.05c0-192.71,156.24-349,349-349
			C695.76,160.02,852,316.31,852,509.02"/>
		<path class="st7" d="M599.96,715.82H489.43c-2.71,0-5.17-1.51-6.37-3.91c-0.57-0.99-0.83-2.14-0.83-3.24
			c0-1.46,0.47-2.97,1.41-4.17l104.11-142.67H484.68c-3.97,0-7.1-3.18-7.1-7.15s3.18-7.15,7.1-7.15h117.05h0.1
			c1.46,0,2.92,0.47,4.17,1.36c1.41,0.99,2.3,2.4,2.71,3.91c0.1,0.42,0.21,0.83,0.21,1.25c0.1,1.67-0.26,3.34-1.3,4.8h-0.05
			L503.47,701.53h96.43c3.97,0,7.1,3.24,7.1,7.15C607.11,712.64,603.97,715.82,599.96,715.82"/>
		<path class="st7" d="M451.5,501.82h-75.98c-2.71,0-5.17-1.57-6.42-3.91c-0.47-0.99-0.73-2.14-0.73-3.24
			c0-1.46,0.47-2.97,1.41-4.17l68.93-94.56h-66.43c-3.97,0-7.15-3.18-7.15-7.15c0-3.91,3.24-7.15,7.15-7.15h80.41h0.05
			c1.46,0,2.87,0.42,4.17,1.36h0.05c0,0,0.05,0.05,0.16,0.1v0.05c1.3,0.94,2.19,2.4,2.56,3.86c0.1,0.42,0.16,0.73,0.26,1.1v0.05
			c0.1,1.62-0.31,3.34-1.36,4.8h-0.05v0.05l-68.93,94.5h61.89c3.97,0,7.15,3.18,7.15,7.15C458.7,498.64,455.51,501.82,451.5,501.82"
			/>
		<path class="st7" d="M578.87,429.23h-59.65c-2.66,0-5.11-1.46-6.37-3.91c-0.57-0.99-0.78-2.14-0.78-3.24
			c0-1.51,0.42-2.92,1.36-4.17l52.39-71.75h-49.16c-3.97,0-7.1-3.24-7.1-7.15c0-3.97,3.13-7.15,7.1-7.15h63.14
			c1.72,0.63,2.92,0.42,4.23,1.3h0.05v0.05h0.05c0,0.05,0.05,0.05,0.05,0.05v0.05h0.05c1.3,0.99,2.19,2.35,2.56,3.81
			c0.1,0.42,0.16,0.83,0.21,1.3c0.1,1.57-0.31,3.29-1.3,4.7l-0.05,0.05l-52.39,71.8h45.56c3.97,0,7.1,3.18,7.1,7.1
			C586.02,426.05,582.84,429.23,578.87,429.23"/>
	</g>
</g>
</svg>
