<?xml version="1.0" encoding="utf-8"?>
<!-- Generator: Adobe Illustrator 24.1.3, SVG Export Plug-In . SVG Version: 6.00 Build 0)  -->
<svg version="1.1" id="Layer_1" xmlns="http://www.w3.org/2000/svg" xmlns:xlink="http://www.w3.org/1999/xlink" x="0px" y="0px"
	 viewBox="0 0 1000 1000" style="enable-background:new 0 0 1000 1000;" xml:space="preserve">
<style type="text/css">
	.st0{fill:#52BE82;}
	.st1{fill:#F2F2F2;}
</style>
<g>
	<g>
		<ellipse class="st0" cx="503.53" cy="507.63" rx="350.8" ry="349.5"/>
	</g>
	<g>
		<path class="st1" d="M382.92,713h-10.67c-2.39,0-4.63-1.04-6.14-2.91c-1.51-1.87-2.13-4.27-1.72-6.61l11.71-59.89
			c0.47-2.34-1.09-4.68-3.43-5.1c-11.81-2.29-21.49-9.68-25.96-19.77l-2.39-5.41c-0.47-0.94-1.2-1.77-2.19-2.19l-5.46-2.5
			c-20.29-9.21-32.94-27.73-32.94-48.34c0-6.3,1.14-12.44,3.49-18.21c1.25-3.12,0.83-5.05-0.42-6.24
			c-0.05-0.05-26.59-25.76-23.21-54.53c1.51-12.7,7.49-35.75,30.18-47.51l6.35-3.28c0.26-0.16,0.47-0.31,0.78-0.47
			c0.68-0.31,3.12-1.56,6.76-2.76c3.38-48.49,51.77-84.14,95.22-84.14c11.6,0,22.95,1.82,33.82,5.46
			c17.33-20.86,61.4-26.28,77.48-24.51c17.07,1.87,39.96,8.12,52.08,27l5.88,9.21c0.99,1.56,2.65,2.34,4.63,1.87l10.72-2.39
			c34.08-7.54,67.95,13.22,73.31,43.97l1.77,10.25c0.31,1.77,1.67,3.17,3.33,3.54l10.2,2.24c26.85,5.88,45.53,27.53,45.53,52.55
			c0,8.38-2.03,16.39-6.14,23.88l-4.06,7.44c-0.68,1.3-0.68,2.91,0,4.16l4.06,7.44c4.11,7.49,6.19,15.56,6.19,23.93
			c0,16.39-9.78,36.73-37.36,40.01c-1.4,0.16-2.65,0.99-3.33,2.24l0,0c0.05,0-17.79,31.74-49.27,35.49
			c-2.34,0.31-4.84,0.42-7.34,0.42c-12.44,0-38.76,0-55.57-10.15c-17.79,23.15-56.82,29.24-82.94,10.77
			c-0.05,0.05-0.1,0.16-0.16,0.21c-11.08,13.84-41.73,31.58-77.53,21.44c-1.04,0.36-1.93,1.09-2.45,2.08l-35.8,67.02
			C388.59,711.33,385.88,713,382.92,713z M328.44,444.15c-0.16,0.1-0.36,0.21-0.52,0.31l-6.71,3.49
			c-16.23,8.38-20.55,25.65-21.7,35.23c-2.34,19.93,18.37,41.05,18.52,41.26c5.93,5.78,7.7,14.46,4.58,22.11
			c-2.08,5.26-2.91,9.42-2.91,13.68c0,14.26,9.05,27.26,23.62,33.87l5.52,2.5c4.47,2.03,8.01,5.67,10.09,10.2l2.45,5.52
			c2.34,5.36,7.7,9.31,14.36,10.56c10.98,2.19,18.21,12.85,16.08,23.78l-7.65,39.08l27.52-51.46c3.33-6.19,9.47-10.2,16.49-10.72
			c1.04-0.05,2.03,0.05,2.97,0.31c33.72,10.35,59.47-10.3,63.17-17.07c-4.16-13.16-19.04-52.66-51.56-68.27
			c-20.34-9.83-43.81-8.69-69.62,3.17c-4.06,1.82-8.74,0.1-10.61-3.9c-1.82-4.01-0.1-8.74,3.95-10.56
			c30.49-14,58.48-14.99,83.25-3.07c36.37,17.48,53.23,57.44,59.37,76.33l5.15,3.8c19.72,14.62,49.95,10.09,62.96-8.22
			c18.99-39.39-12.49-79.3-13.84-80.96c-2.76-3.43-2.19-8.43,1.25-11.19c3.38-2.76,8.48-2.19,11.24,1.25
			c0.62,0.78,6.92,8.74,12.75,21.07c24.77-28.25,59.21-31.74,60.83-31.9c4.21-0.47,8.33,2.86,8.64,7.23
			c0.42,4.37-2.81,8.27-7.23,8.64c-0.36,0-35.02,3.49-55.57,33.4c4.16,14.31,5.83,31.38,0.42,49.07c12.23,8.74,39.23,8.74,48.7,8.74
			c1.87,0,3.69-0.1,5.46-0.31c22.69-2.71,37.1-27.26,37.26-27.53c3.28-5.67,8.95-9.42,15.35-10.2c20.97-2.5,23.26-17.8,23.26-24.19
			c0-5.67-1.4-11.19-4.27-16.29l-4.06-7.44c-3.33-6.09-3.33-13.32,0-19.41l4.06-7.44c2.76-5.1,4.21-10.56,4.21-16.29
			c0-17.48-13.58-32.68-32.99-36.94l-10.2-2.24c-8.12-1.82-14.26-8.22-15.66-16.34l-1.77-10.25c-3.85-21.91-28.41-36.94-54.06-31.12
			l-10.72,2.39c-8.22,1.93-17.01-1.72-21.59-8.9l-5.88-9.21c-8.69-13.58-26.74-18.26-40.38-19.77
			c-15.14-1.67-47.19,4.01-60.67,16.03c14.52,9.26,23.26,20.66,26.59,34.03c6.82,27.73-11.19,56.04-14.88,61.45
			c-2.39,3.54-7.34,4.58-10.98,2.24c-3.64-2.34-4.79-7.13-2.5-10.82c2.08-3.07,18.16-27.42,12.8-49.07
			c-2.76-11.29-11.71-20.86-26.59-28.46c-10.15-4.06-21.54-6.3-33.3-6.3c-34.34,0-73.89,28.1-78.88,65.66
			c3.64,0.05,7.44,0.62,11.34,1.93c12.33,4.01,22.32,14.52,29.76,31.12c1.77,4.01-0.05,8.74-4.06,10.51
			c-4.21,1.82-8.79-0.05-10.56-4.06c-5.52-12.28-12.23-19.88-20.14-22.43C339.73,438.27,328.85,443.89,328.44,444.15L328.44,444.15z
			 M571.84,399.51c-2.81,0-5.57-1.51-7.02-4.16c-1.09-1.93-10.67-18.68-28.46-22.84c-8.33-1.98-16.96-0.78-25.65,3.33
			c-4.01,1.77-8.79,0.16-10.67-3.8c-1.87-4.01-0.16-8.74,3.8-10.61c12.07-5.67,24.3-7.18,36.16-4.42
			c24.09,5.67,36.63,26.59,38.87,30.75c2.13,3.85,0.73,8.74-3.17,10.82C574.5,399.19,573.15,399.51,571.84,399.51z"/>
	</g>
</g>
</svg>
