<?xml version="1.0" encoding="utf-8"?>
<!-- Generator: Adobe Illustrator 24.1.3, SVG Export Plug-In . SVG Version: 6.00 Build 0)  -->
<svg version="1.1" id="Layer_1" xmlns="http://www.w3.org/2000/svg" xmlns:xlink="http://www.w3.org/1999/xlink" x="0px" y="0px"
	 viewBox="0 0 1000 1000" style="enable-background:new 0 0 1000 1000;" xml:space="preserve">
<style type="text/css">
	.st0{display:none;}
	.st1{display:inline;}
	.st2{fill:#52BE82;}
	.st3{fill:#F2F2F2;}
	.st4{fill:none;stroke:#FFFFFF;stroke-width:12.96;stroke-linecap:round;stroke-linejoin:round;stroke-miterlimit:10;}
	.st5{fill:#FFFFFF;}
</style>
<g id="Layer_1_1_" class="st0">
	<g class="st1">
		<g>
			<ellipse class="st2" cx="503.5" cy="507.6" rx="350.8" ry="349.5"/>
		</g>
		<g>
			<path class="st3" d="M382.9,713h-10.7c-2.4,0-4.6-1-6.1-2.9s-2.1-4.3-1.7-6.6l11.7-59.9c0.5-2.3-1.1-4.7-3.4-5.1
				c-11.8-2.3-21.5-9.7-26-19.8l-2.4-5.4c-0.5-0.9-1.2-1.8-2.2-2.2l-5.5-2.5c-20.3-9.2-32.9-27.7-32.9-48.3c0-6.3,1.1-12.4,3.5-18.2
				c1.2-3.1,0.8-5-0.4-6.2c0,0-26.6-25.8-23.2-54.5c1.5-12.7,7.5-35.8,30.2-47.5l6.4-3.3c0.3-0.2,0.5-0.3,0.8-0.5
				c0.7-0.3,3.1-1.6,6.8-2.8c3.4-48.5,51.8-84.1,95.2-84.1c11.6,0,23,1.8,33.8,5.5c17.3-20.9,61.4-26.3,77.5-24.5
				c17.1,1.9,40,8.1,52.1,27l5.9,9.2c1,1.6,2.7,2.3,4.6,1.9l10.7-2.4c34.1-7.5,68,13.2,73.3,44l1.8,10.2c0.3,1.8,1.7,3.2,3.3,3.5
				l10.2,2.2c26.8,5.9,45.5,27.5,45.5,52.5c0,8.4-2,16.4-6.1,23.9l-4.1,7.4c-0.7,1.3-0.7,2.9,0,4.2l4.1,7.4
				c4.1,7.5,6.2,15.6,6.2,23.9c0,16.4-9.8,36.7-37.4,40c-1.4,0.2-2.7,1-3.3,2.2l0,0c0,0-17.8,31.7-49.3,35.5
				c-2.3,0.3-4.8,0.4-7.3,0.4c-12.4,0-38.8,0-55.6-10.2C571,630.3,532,636.4,505.9,618c0,0-0.1,0.2-0.2,0.2
				c-11.1,13.8-41.7,31.6-77.5,21.4c-1,0.4-1.9,1.1-2.5,2.1l-35.8,67C388.6,711.3,385.9,713,382.9,713z M328.4,444.1
				c-0.2,0.1-0.4,0.2-0.5,0.3l-6.7,3.5c-16.2,8.4-20.5,25.6-21.7,35.2c-2.3,19.9,18.4,41,18.5,41.3c5.9,5.8,7.7,14.5,4.6,22.1
				c-2.1,5.3-2.9,9.4-2.9,13.7c0,14.3,9,27.3,23.6,33.9l5.5,2.5c4.5,2,8,5.7,10.1,10.2l2.5,5.5c2.3,5.4,7.7,9.3,14.4,10.6
				c11,2.2,18.2,12.8,16.1,23.8l-7.6,39.1l27.5-51.5c3.3-6.2,9.5-10.2,16.5-10.7c1,0,2,0,3,0.3c33.7,10.3,59.5-10.3,63.2-17.1
				c-4.2-13.2-19-52.7-51.6-68.3c-20.3-9.8-43.8-8.7-69.6,3.2c-4.1,1.8-8.7,0.1-10.6-3.9c-1.8-4-0.1-8.7,4-10.6
				c30.5-14,58.5-15,83.2-3.1c36.4,17.5,53.2,57.4,59.4,76.3l5.2,3.8c19.7,14.6,50,10.1,63-8.2c19-39.4-12.5-79.3-13.8-81
				c-2.8-3.4-2.2-8.4,1.2-11.2c3.4-2.8,8.5-2.2,11.2,1.2c0.6,0.8,6.9,8.7,12.8,21.1c24.8-28.2,59.2-31.7,60.8-31.9
				c4.2-0.5,8.3,2.9,8.6,7.2c0.4,4.4-2.8,8.3-7.2,8.6c-0.4,0-35,3.5-55.6,33.4c4.2,14.3,5.8,31.4,0.4,49.1
				c12.2,8.7,39.2,8.7,48.7,8.7c1.9,0,3.7-0.1,5.5-0.3c22.7-2.7,37.1-27.3,37.3-27.5c3.3-5.7,9-9.4,15.3-10.2
				c21-2.5,23.3-17.8,23.3-24.2c0-5.7-1.4-11.2-4.3-16.3l-4.1-7.4c-3.3-6.1-3.3-13.3,0-19.4l4.1-7.4c2.8-5.1,4.2-10.6,4.2-16.3
				c0-17.5-13.6-32.7-33-36.9l-10.2-2.2c-8.1-1.8-14.3-8.2-15.7-16.3l-1.8-10.2c-3.8-21.9-28.4-36.9-54.1-31.1l-10.7,2.4
				c-8.2,1.9-17-1.7-21.6-8.9l-5.9-9.2c-8.7-13.6-26.7-18.3-40.4-19.8c-15.1-1.7-47.2,4-60.7,16c14.5,9.3,23.3,20.7,26.6,34
				c6.8,27.7-11.2,56-14.9,61.5c-2.4,3.5-7.3,4.6-11,2.2s-4.8-7.1-2.5-10.8c2.1-3.1,18.2-27.4,12.8-49.1
				c-2.8-11.3-11.7-20.9-26.6-28.5c-10.1-4.1-21.5-6.3-33.3-6.3c-34.3,0-73.9,28.1-78.9,65.7c3.6,0,7.4,0.6,11.3,1.9
				c12.3,4,22.3,14.5,29.8,31.1c1.8,4,0,8.7-4.1,10.5c-4.2,1.8-8.8,0-10.6-4.1c-5.5-12.3-12.2-19.9-20.1-22.4
				C339.7,438.3,328.9,443.9,328.4,444.1L328.4,444.1z M571.8,399.5c-2.8,0-5.6-1.5-7-4.2c-1.1-1.9-10.7-18.7-28.5-22.8
				c-8.3-2-17-0.8-25.6,3.3c-4,1.8-8.8,0.2-10.7-3.8c-1.9-4-0.2-8.7,3.8-10.6c12.1-5.7,24.3-7.2,36.2-4.4
				c24.1,5.7,36.6,26.6,38.9,30.8c2.1,3.9,0.7,8.7-3.2,10.8C574.5,399.2,573.2,399.5,571.8,399.5z"/>
		</g>
	</g>
</g>
<g id="Layer_2_1_">
	<g>
		<g>
			<path class="st2" d="M853,507.5C853,700.6,696.5,857,503.5,857C310.5,857,154,700.5,154,507.5S310.5,158,503.5,158
				C696.5,157.9,853,314.4,853,507.5"/>
			<path class="st4" d="M698.1,507.5c0,107.5-87.2,194.6-194.6,194.6s-194.6-87.2-194.6-194.6c0-107.5,87.1-194.6,194.6-194.6
				S698.1,399.9,698.1,507.5z"/>
			<path class="st4" d="M643.4,507.5c0,77.3-62.7,139.9-139.9,139.9s-139.9-62.5-139.9-139.9c0-77.3,62.6-139.9,139.9-139.9
				S643.4,430.2,643.4,507.5z"/>
			<path class="st5" d="M541.3,507.5c0,20.9-16.9,37.7-37.8,37.7c-20.8,0-37.8-16.8-37.8-37.7s16.9-37.7,37.8-37.7
				C524.4,469.7,541.3,486.6,541.3,507.5"/>
		</g>
		<path class="st5" d="M385.1,367.5c0,11.9-9.6,21.5-21.5,21.5c-11.8,0-21.4-9.6-21.4-21.5c0-11.8,9.6-21.4,21.4-21.4
			C375.5,346.1,385.1,355.7,385.1,367.5"/>
		<path class="st5" d="M451.8,685.3c0,11.9-9.6,21.5-21.5,21.5c-11.9,0-21.5-9.6-21.5-21.5c0-11.8,9.6-21.5,21.5-21.5
			C442.2,663.8,451.8,673.4,451.8,685.3"/>
		<path class="st5" d="M608.7,616.7c0,11.9-9.6,21.5-21.5,21.5s-21.5-9.6-21.5-21.5c0-11.8,9.6-21.5,21.5-21.5
			C599.1,595.2,608.7,604.9,608.7,616.7"/>
		<path class="st5" d="M660.4,480c0,11.8-9.6,21.5-21.5,21.5s-21.5-9.6-21.5-21.5c0-11.9,9.6-21.5,21.5-21.5
			C650.7,458.5,660.4,468.1,660.4,480"/>
		<path class="st5" d="M660.4,367.5c0,11.9-9.6,21.5-21.5,21.5s-21.5-9.6-21.5-21.5c0-11.8,9.6-21.4,21.5-21.4
			S660.4,355.7,660.4,367.5"/>
		<path class="st5" d="M385.1,491.1c0,11.9-9.6,21.5-21.5,21.5c-11.8,0-21.4-9.6-21.4-21.5c0-11.8,9.6-21.4,21.4-21.4
			C375.5,469.7,385.1,479.3,385.1,491.1"/>
	</g>
</g>
</svg>
