<?xml version="1.0" encoding="UTF-8"?>
<svg width="34px" height="29px" viewBox="0 0 34 29" version="1.1" xmlns="http://www.w3.org/2000/svg" xmlns:xlink="http://www.w3.org/1999/xlink">
    <!-- Generator: Sketch 53.2 (72643) - https://sketchapp.com -->
    <title>Group 3</title>
    <desc>Created with Sketch.</desc>
    <defs>
        <polygon id="path-1" points="0.352941176 0 33.3529412 0 33.3529412 28.5 0.352941176 28.5"></polygon>
    </defs>
    <g id="Page-1" stroke="none" stroke-width="1" fill="none" fill-rule="evenodd">
        <g id="Desktop---FINAL-popup" transform="translate(-1350.000000, -79.000000)">
            <g id="Group-23" transform="translate(1350.000000, 47.000000)">
                <g id="Group">
                    <g id="Group-3" transform="translate(0.000000, 32.500000)">
                        <mask id="mask-2" fill="white">
                            <use xlink:href="#path-1"></use>
                        </mask>
                        <g id="Clip-2"></g>
                        <path d="M22.2919179,24.3180897 L13.3609378,24.3180897 C13.6799658,25.5588675 13.6132763,26.6833224 12.7733496,27.6158445 C12.2073904,28.2439883 11.5026451,28.5173472 10.6915571,28.4940826 C8.85489336,28.4397986 7.93205545,26.9217844 8.2006157,24.2715605 C7.82931764,24.2715605 7.46342683,24.2715605 7.09933844,24.2696218 C5.84125083,24.2676831 5.58891234,23.8295334 6.12603284,22.5829394 C6.48110914,21.7570467 6.80193951,20.9098281 7.20027384,20.1091386 C7.49947519,19.5100756 7.52831387,18.9303997 7.42197122,18.28093 C6.67396784,13.6706648 5.94579106,9.05846097 5.21220702,4.44625709 C5.0986547,3.73668727 4.96167095,3.02905615 4.89137666,2.3156089 C4.84090896,1.78827832 4.60839707,1.6603231 4.1559902,1.67583282 C3.22954746,1.70685227 2.30310472,1.7107297 1.3784644,1.66807796 C1.09007756,1.65644567 0.729594002,1.54012275 0.540340135,1.32880277 C0.12217921,0.859633651 0.450219246,0.0395570472 1.06664613,0.0240473242 C2.54282629,-0.0127882679 4.02080887,-0.00115597569 5.49879145,0.0182311781 C5.89352094,0.0240473242 6.14585943,0.283835184 6.21615373,0.723923574 C6.3351133,1.47614514 6.43785111,2.23224414 6.6090808,2.96895598 C6.65233883,3.15895008 6.90467732,3.32567961 7.0957336,3.43424767 C7.21829801,3.50404142 7.40394704,3.44781868 7.56075739,3.44781868 C15.6788471,3.44975739 23.7969368,3.44781868 31.9150264,3.44975739 C33.4200453,3.44975739 33.6020895,3.7153614 33.1064246,5.24500783 C31.6014058,9.88435372 30.0891772,14.5198222 28.5787511,19.1552906 C28.2489087,20.1673001 28.1930337,20.2002582 27.1692604,20.2002582 C21.3564631,20.1983195 15.5436657,20.2099518 9.7308684,20.1808711 C9.07659075,20.1769936 8.70889752,20.3824975 8.50702673,21.0494156 C8.36463572,21.5244008 8.13753108,21.9703054 7.90501919,22.5344715 C8.23125681,22.5557974 8.47458321,22.5848781 8.71610719,22.5848781 C15.4337183,22.5868169 22.1531317,22.5868169 28.8707428,22.5868169 C28.9897024,22.5868169 29.1068595,22.5829394 29.2258191,22.5868169 C29.8512581,22.6081427 30.2009271,22.9183372 30.1937175,23.443729 C30.1865078,23.9691209 29.8476533,24.2560508 29.2077949,24.2676831 C28.6977107,24.2793154 28.1840216,24.2831928 27.6739374,24.2948251 C27.6360866,24.2948251 27.6000383,24.3239058 27.4973005,24.3723737 C27.8055139,25.657742 27.6919616,26.877194 26.6808052,27.8135935 C26.1004267,28.3506177 25.4064958,28.5483666 24.6440731,28.4902052 C22.9371835,28.3603112 22.1044665,26.917907 22.2919179,24.3180897 L22.2919179,24.3180897 Z M6.96415711,5.18103022 C7.07590701,5.92161949 7.17503999,6.60598602 7.28318505,7.28841383 C7.83832973,10.8382017 8.40068408,14.3860508 8.94681667,17.9377774 C9.01170371,18.3642948 9.15769955,18.5290856 9.59208223,18.5271469 C15.2462668,18.5096984 20.9004514,18.5116371 26.554636,18.5232694 C26.9331437,18.5232694 27.1548411,18.4418434 27.2936273,18.0095099 C28.6057874,13.928514 29.9395766,9.85333427 31.266156,5.77621584 C31.322031,5.60560889 31.3562769,5.42724707 31.4175591,5.18103022 L6.96415711,5.18103022 Z M24.9576938,26.7880131 C25.5993545,26.7763808 26.1184509,26.1908887 26.0896122,25.5103996 C26.0625759,24.8240944 25.5146409,24.2851315 24.8729802,24.3083961 C24.2259122,24.3335994 23.7176304,24.9113366 23.7392594,25.5976418 C23.7608884,26.2800696 24.2926017,26.8015841 24.9576938,26.7880131 L24.9576938,26.7880131 Z M10.8177263,26.7860744 C11.4756088,26.7744421 11.9892979,26.2219082 11.976681,25.5356029 C11.9658664,24.8415428 11.4413629,24.3006412 10.7888876,24.3083961 C10.1490293,24.3180897 9.62272333,24.8919494 9.63353784,25.5704998 C9.64435235,26.2761922 10.1526342,26.7977066 10.8177263,26.7860744 L10.8177263,26.7860744 Z" id="Fill-1" fill="#231F20" mask="url(#mask-2)"></path>
                    </g>
                </g>
            </g>
        </g>
    </g>
</svg>