<?xml version="1.0" encoding="UTF-8"?>
<svg width="21px" height="21px" viewBox="0 0 21 21" version="1.1" xmlns="http://www.w3.org/2000/svg" xmlns:xlink="http://www.w3.org/1999/xlink">
    <!-- Generator: Sketch 53.2 (72643) - https://sketchapp.com -->
    <title>Group 8</title>
    <desc>Created with Sketch.</desc>
    <defs>
        <polygon id="path-1" points="0 0.0091 20.7909 0.0091 20.7909 20.79987 0 20.79987"></polygon>
    </defs>
    <g id="Page-1" stroke="none" stroke-width="1" fill="none" fill-rule="evenodd">
        <g id="PDP-no-variant" transform="translate(-28.000000, -493.000000)">
            <g id="Group-8" transform="translate(28.000000, 493.000000)">
                <g id="Group-3">
                    <mask id="mask-2" fill="white">
                        <use xlink:href="#path-1"></use>
                    </mask>
                    <g id="Clip-2"></g>
                    <path d="M20.7909,10.40377 C20.7909,16.14587 16.1369,20.79987 10.3948,20.79987 C4.6527,20.79987 0,16.14587 0,10.40377 C0,4.66297 4.6527,0.00897 10.3948,0.00897 C16.1369,0.00897 20.7909,4.66297 20.7909,10.40377" id="Fill-1" fill="#8B8CEF" mask="url(#mask-2)"></path>
                </g>
                <g id="Group-7" transform="translate(9.000000, 12.000000)">
                    <path d="M4.18418,5.16226 L0.89128,5.16226 C0.81068,5.16226 0.73918,5.11676 0.70278,5.04526 C0.68718,5.01666 0.67808,4.98156 0.67808,4.94906 C0.67808,4.90486 0.69238,4.86196 0.71968,4.82426 L3.82148,0.57456 L0.75088,0.57456 C0.63388,0.57456 0.53898,0.47966 0.53898,0.36136 C0.53898,0.24306 0.63388,0.14816 0.75088,0.14816 L4.23748,0.14816 L4.24138,0.14816 C4.28428,0.14816 4.32848,0.16116 4.36488,0.18976 C4.40778,0.21836 4.43248,0.25996 4.44678,0.30676 C4.44938,0.31846 4.45328,0.33146 4.45328,0.34446 C4.45588,0.39256 4.44548,0.44326 4.41428,0.48616 L4.41298,0.48616 L1.31118,4.73586 L4.18418,4.73586 C4.30248,4.73586 4.39608,4.83206 4.39608,4.94906 C4.39608,5.06866 4.30248,5.16226 4.18418,5.16226" id="Fill-4" fill="#DBDAED"></path>
                    <path d="M4.18418,5.16226 L0.89128,5.16226 C0.81068,5.16226 0.73918,5.11676 0.70278,5.04526 C0.68718,5.01666 0.67808,4.98156 0.67808,4.94906 C0.67808,4.90486 0.69238,4.86196 0.71968,4.82426 L3.82148,0.57456 L0.75088,0.57456 C0.63388,0.57456 0.53898,0.47966 0.53898,0.36136 C0.53898,0.24306 0.63388,0.14816 0.75088,0.14816 L4.23748,0.14816 L4.24138,0.14816 C4.28428,0.14816 4.32848,0.16116 4.36488,0.18976 C4.40778,0.21836 4.43248,0.25996 4.44678,0.30676 C4.44938,0.31846 4.45328,0.33146 4.45328,0.34446 C4.45588,0.39256 4.44548,0.44326 4.41428,0.48616 L4.41298,0.48616 L1.31118,4.73586 L4.18418,4.73586 C4.30248,4.73586 4.39608,4.83206 4.39608,4.94906 C4.39608,5.06866 4.30248,5.16226 4.18418,5.16226" id="Stroke-6" stroke="#FEFEFE" stroke-width="0.5"></path>
                </g>
                <g id="Group-11" transform="translate(6.000000, 7.000000)">
                    <path d="M2.66171,3.68914 L0.39971,3.68914 C0.31781,3.68914 0.24501,3.64234 0.20861,3.57084 C0.19431,3.54224 0.18651,3.50844 0.18651,3.47464 C0.18651,3.43174 0.19951,3.38754 0.22811,3.34984 L2.28211,0.53404 L0.30221,0.53404 C0.18391,0.53404 0.08901,0.43914 0.08901,0.32084 C0.08901,0.20254 0.18391,0.10634 0.30221,0.10634 L2.69681,0.10634 L2.69941,0.10634 C2.74231,0.10634 2.78521,0.11934 2.82421,0.14794 L2.82551,0.14794 C2.82551,0.14794 2.82681,0.14924 2.82941,0.15054 L2.82941,0.15314 C2.86841,0.18174 2.89441,0.22464 2.90611,0.26754 C2.90871,0.28054 2.91001,0.29094 2.91261,0.30264 L2.91261,0.30394 C2.91651,0.35204 2.90481,0.40274 2.87361,0.44564 L2.87231,0.44564 L2.87231,0.44694 L0.81831,3.26144 L2.66171,3.26144 C2.78001,3.26144 2.87491,3.35634 2.87491,3.47464 C2.87491,3.59424 2.78001,3.68914 2.66171,3.68914" id="Fill-8" fill="#DBDAED"></path>
                    <path d="M2.66171,3.68914 L0.39971,3.68914 C0.31781,3.68914 0.24501,3.64234 0.20861,3.57084 C0.19431,3.54224 0.18651,3.50844 0.18651,3.47464 C0.18651,3.43174 0.19951,3.38754 0.22811,3.34984 L2.28211,0.53404 L0.30221,0.53404 C0.18391,0.53404 0.08901,0.43914 0.08901,0.32084 C0.08901,0.20254 0.18391,0.10634 0.30221,0.10634 L2.69681,0.10634 L2.69941,0.10634 C2.74231,0.10634 2.78521,0.11934 2.82421,0.14794 L2.82551,0.14794 C2.82551,0.14794 2.82681,0.14924 2.82941,0.15054 L2.82941,0.15314 C2.86841,0.18174 2.89441,0.22464 2.90611,0.26754 C2.90871,0.28054 2.91001,0.29094 2.91261,0.30264 L2.91261,0.30394 C2.91651,0.35204 2.90481,0.40274 2.87361,0.44564 L2.87231,0.44564 L2.87231,0.44694 L0.81831,3.26144 L2.66171,3.26144 C2.78001,3.26144 2.87491,3.35634 2.87491,3.47464 C2.87491,3.59424 2.78001,3.68914 2.66171,3.68914" id="Stroke-10" stroke="#FEFEFE" stroke-width="0.5"></path>
                </g>
                <g id="Group-15" transform="translate(10.000000, 5.000000)">
                    <path d="M2.25576,3.12594 L0.47866,3.12594 C0.39936,3.12594 0.32656,3.08304 0.29016,3.00894 C0.27326,2.98034 0.26676,2.94524 0.26676,2.91274 C0.26676,2.86854 0.27846,2.82694 0.30706,2.78794 L1.86706,0.65204 L0.40326,0.65204 C0.28366,0.65204 0.19136,0.55454 0.19136,0.43884 C0.19136,0.31924 0.28366,0.22564 0.40326,0.22564 L2.28306,0.22564 C2.33506,0.24384 2.37016,0.23734 2.41046,0.26464 L2.41176,0.26464 L2.41176,0.26594 L2.41306,0.26594 C2.41306,0.26724 2.41436,0.26724 2.41436,0.26724 L2.41436,0.26984 L2.41696,0.26984 C2.45466,0.29844 2.48066,0.33744 2.49236,0.38294 C2.49496,0.39464 2.49756,0.40764 2.49886,0.42194 C2.50146,0.47004 2.48846,0.52074 2.45986,0.56104 L2.45856,0.56234 L0.89856,2.70084 L2.25576,2.70084 C2.37406,2.70084 2.46766,2.79574 2.46766,2.91274 C2.46766,3.03234 2.37406,3.12594 2.25576,3.12594" id="Fill-12" fill="#DBDAED"></path>
                    <path d="M2.25576,3.12594 L0.47866,3.12594 C0.39936,3.12594 0.32656,3.08304 0.29016,3.00894 C0.27326,2.98034 0.26676,2.94524 0.26676,2.91274 C0.26676,2.86854 0.27846,2.82694 0.30706,2.78794 L1.86706,0.65204 L0.40326,0.65204 C0.28366,0.65204 0.19136,0.55454 0.19136,0.43884 C0.19136,0.31924 0.28366,0.22564 0.40326,0.22564 L2.28306,0.22564 C2.33506,0.24384 2.37016,0.23734 2.41046,0.26464 L2.41176,0.26464 L2.41176,0.26594 L2.41306,0.26594 C2.41306,0.26724 2.41436,0.26724 2.41436,0.26724 L2.41436,0.26984 L2.41696,0.26984 C2.45466,0.29844 2.48066,0.33744 2.49236,0.38294 C2.49496,0.39464 2.49756,0.40764 2.49886,0.42194 C2.50146,0.47004 2.48846,0.52074 2.45986,0.56104 L2.45856,0.56234 L0.89856,2.70084 L2.25576,2.70084 C2.37406,2.70084 2.46766,2.79574 2.46766,2.91274 C2.46766,3.03234 2.37406,3.12594 2.25576,3.12594" id="Stroke-14" stroke="#FEFEFE" stroke-width="0.5"></path>
                </g>
            </g>
        </g>
    </g>
</svg>